<?xml version="1.0" encoding="UTF-8" standalone="no" ?>
<!DOCTYPE svg PUBLIC "-//W3C//DTD SVG 1.1//EN" "http://www.w3.org/Graphics/SVG/1.1/DTD/svg11.dtd">
<svg xmlns="http://www.w3.org/2000/svg" xmlns:xlink="http://www.w3.org/1999/xlink" version="1.1" width="150" height="150" viewBox="0 0 500 500" xml:space="preserve">
<desc>Created with Fabric.js 5.3.0</desc>
<defs>
</defs>
<g transform="matrix(1 0 0 1 250 250)" id="ZtyNpLBItQDXCfjA2--Ni"  >
<g style="" vector-effect="non-scaling-stroke"   >
		<g transform="matrix(3.0065239441 0 0 3.0065239441 121.1549436056 -6.8808105421)" id="BzYYG1L62-56bnxNNYNiK"  >
<g style="" vector-effect="non-scaling-stroke"   >
		<g transform="matrix(1 0 0 1 0 0)" id="K1tFX_rJ2jaPjDW5Z5DHj"  >
<path style="stroke: none; stroke-width: 1; stroke-dasharray: none; stroke-linecap: round; stroke-dashoffset: 0; stroke-linejoin: round; stroke-miterlimit: 4; fill: none; fill-rule: nonzero; opacity: 1;" vector-effect="non-scaling-stroke"  transform=" translate(-12, -12)" d="M 0 0 L 24 0 L 24 24 L 0 24 z" stroke-linecap="round" />
</g>
		<g transform="matrix(1 0 0 1 3 2)" id="3j8p8LO9ssEHU-5X07C3F"  >
<path style="stroke: rgb(218,226,236); stroke-width: 1; stroke-dasharray: none; stroke-linecap: round; stroke-dashoffset: 0; stroke-linejoin: round; stroke-miterlimit: 4; fill: none; fill-rule: nonzero; opacity: 1;" vector-effect="non-scaling-stroke"  transform=" translate(-15, -14)" d="M 9 14 C 9 15.657 11.686 17 15 17 C 18.314 17 21 15.657 21 14 C 21 12.343 18.314 11 15 11 C 11.686 11 9 12.343 9 14 z" stroke-linecap="round" />
</g>
		<g transform="matrix(1 0 0 1 3 5.5)" id="lYOHELQVa9FZL-QYAgfZ6"  >
<path style="stroke: rgb(218,226,236); stroke-width: 1; stroke-dasharray: none; stroke-linecap: round; stroke-dashoffset: 0; stroke-linejoin: round; stroke-miterlimit: 4; fill: none; fill-rule: nonzero; opacity: 1;" vector-effect="non-scaling-stroke"  transform=" translate(-15, -17.5)" d="M 9 14 L 9 18 C 9 19.656 11.686 21 15 21 C 18.314 21 21 19.656 21 18 L 21 14" stroke-linecap="round" />
</g>
		<g transform="matrix(1 0 0 1 -3 -6)" id="zZ5_E3cjrO1-18nOZnNCV"  >
<path style="stroke: rgb(218,226,236); stroke-width: 1; stroke-dasharray: none; stroke-linecap: round; stroke-dashoffset: 0; stroke-linejoin: round; stroke-miterlimit: 4; fill: none; fill-rule: nonzero; opacity: 1;" vector-effect="non-scaling-stroke"  transform=" translate(-9, -6)" d="M 3 6 C 3 7.072 4.144 8.062 6 8.597999999999999 C 7.856 9.133999999999999 10.144 9.133999999999999 12 8.597999999999999 C 13.856 8.062 15 7.071999999999999 15 5.999999999999999 C 15 4.927999999999999 13.856 3.9379999999999993 12 3.4019999999999992 C 10.144 2.865999999999999 7.856 2.865999999999999 6 3.4019999999999992 C 4.144 3.9379999999999993 3 4.927999999999999 3 5.999999999999999 z" stroke-linecap="round" />
</g>
		<g transform="matrix(1 0 0 1 -8 0)" id="hrdyuG8_0cBEA87ce24ms"  >
<path style="stroke: rgb(218,226,236); stroke-width: 1; stroke-dasharray: none; stroke-linecap: round; stroke-dashoffset: 0; stroke-linejoin: round; stroke-miterlimit: 4; fill: none; fill-rule: nonzero; opacity: 1;" vector-effect="non-scaling-stroke"  transform=" translate(-4, -12)" d="M 3 6 L 3 16 C 3 16.888 3.7720000000000002 17.45 5 18" stroke-linecap="round" />
</g>
		<g transform="matrix(1 0 0 1 -8 0)" id="NFJr4jAKn0q28FtMdK2n-"  >
<path style="stroke: rgb(218,226,236); stroke-width: 1; stroke-dasharray: none; stroke-linecap: round; stroke-dashoffset: 0; stroke-linejoin: round; stroke-miterlimit: 4; fill: none; fill-rule: nonzero; opacity: 1;" vector-effect="non-scaling-stroke"  transform=" translate(-4, -12)" d="M 3 11 C 3 11.888 3.7720000000000002 12.45 5 13" stroke-linecap="round" />
</g>
</g>
</g>
		<g transform="matrix(3.5072111227 0 0 3.5072111227 97.9657129607 46.3828857002)" id="hocL43HeRnELv1tn987qZ"  >
<g style="" vector-effect="non-scaling-stroke"   >
		<g transform="matrix(1 0 0 1 0 0)" id="TvW_xqHpeoAkFsEMS7gWT"  >
<path style="stroke: none; stroke-width: 1; stroke-dasharray: none; stroke-linecap: round; stroke-dashoffset: 0; stroke-linejoin: round; stroke-miterlimit: 4; fill: none; fill-rule: nonzero; opacity: 1;" vector-effect="non-scaling-stroke"  transform=" translate(-12, -12)" d="M 0 0 L 24 0 L 24 24 L 0 24 z" stroke-linecap="round" />
</g>
		<g transform="matrix(1 0 0 1 3 2)" id="yZtXhTP25VDwfjF6YEoO1"  >
<path style="stroke: rgb(218,226,236); stroke-width: 1; stroke-dasharray: none; stroke-linecap: round; stroke-dashoffset: 0; stroke-linejoin: round; stroke-miterlimit: 4; fill: none; fill-rule: nonzero; opacity: 1;" vector-effect="non-scaling-stroke"  transform=" translate(-15, -14)" d="M 9 14 C 9 15.657 11.686 17 15 17 C 18.314 17 21 15.657 21 14 C 21 12.343 18.314 11 15 11 C 11.686 11 9 12.343 9 14 z" stroke-linecap="round" />
</g>
		<g transform="matrix(1 0 0 1 3 5.5)" id="UeySGh6rEyFeVH7rSaz6D"  >
<path style="stroke: rgb(218,226,236); stroke-width: 1; stroke-dasharray: none; stroke-linecap: round; stroke-dashoffset: 0; stroke-linejoin: round; stroke-miterlimit: 4; fill: none; fill-rule: nonzero; opacity: 1;" vector-effect="non-scaling-stroke"  transform=" translate(-15, -17.5)" d="M 9 14 L 9 18 C 9 19.656 11.686 21 15 21 C 18.314 21 21 19.656 21 18 L 21 14" stroke-linecap="round" />
</g>
		<g transform="matrix(1 0 0 1 -3 -6)" id="oQm6cq0s2lvcAQDskqPQt"  >
<path style="stroke: rgb(218,226,236); stroke-width: 1; stroke-dasharray: none; stroke-linecap: round; stroke-dashoffset: 0; stroke-linejoin: round; stroke-miterlimit: 4; fill: none; fill-rule: nonzero; opacity: 1;" vector-effect="non-scaling-stroke"  transform=" translate(-9, -6)" d="M 3 6 C 3 7.072 4.144 8.062 6 8.597999999999999 C 7.856 9.133999999999999 10.144 9.133999999999999 12 8.597999999999999 C 13.856 8.062 15 7.071999999999999 15 5.999999999999999 C 15 4.927999999999999 13.856 3.9379999999999993 12 3.4019999999999992 C 10.144 2.865999999999999 7.856 2.865999999999999 6 3.4019999999999992 C 4.144 3.9379999999999993 3 4.927999999999999 3 5.999999999999999 z" stroke-linecap="round" />
</g>
		<g transform="matrix(1 0 0 1 -8 0)" id="sxkCeNfa89a7402kXFea5"  >
<path style="stroke: rgb(218,226,236); stroke-width: 1; stroke-dasharray: none; stroke-linecap: round; stroke-dashoffset: 0; stroke-linejoin: round; stroke-miterlimit: 4; fill: none; fill-rule: nonzero; opacity: 1;" vector-effect="non-scaling-stroke"  transform=" translate(-4, -12)" d="M 3 6 L 3 16 C 3 16.888 3.7720000000000002 17.45 5 18" stroke-linecap="round" />
</g>
		<g transform="matrix(1 0 0 1 -8 0)" id="x1a31xYAqYPqAydCWNYqN"  >
<path style="stroke: rgb(218,226,236); stroke-width: 1; stroke-dasharray: none; stroke-linecap: round; stroke-dashoffset: 0; stroke-linejoin: round; stroke-miterlimit: 4; fill: none; fill-rule: nonzero; opacity: 1;" vector-effect="non-scaling-stroke"  transform=" translate(-4, -12)" d="M 3 11 C 3 11.888 3.7720000000000002 12.45 5 13" stroke-linecap="round" />
</g>
</g>
</g>
		<g transform="matrix(10.4542746528 0 0 10.4542746528 -31.7819351013 0)" id="duVqhRN5EZLjw_E5pyAfE"  >
<g style="" vector-effect="non-scaling-stroke"   >
		<g transform="matrix(1 0 0 1 0 0)" id="NJZ_rsg4yUREUH2m1_Oqo"  >
<path style="stroke: none; stroke-width: 1; stroke-dasharray: none; stroke-linecap: round; stroke-dashoffset: 0; stroke-linejoin: round; stroke-miterlimit: 4; fill: none; fill-rule: nonzero; opacity: 1;" vector-effect="non-scaling-stroke"  transform=" translate(-12, -12)" d="M 0 0 L 24 0 L 24 24 L 0 24 z" stroke-linecap="round" />
</g>
		<g transform="matrix(1 0 0 1 3 2)" id="v8wKG4Lbxjqiz1MRuwkiQ"  >
<path style="stroke: rgb(218,226,236); stroke-width: 1; stroke-dasharray: none; stroke-linecap: round; stroke-dashoffset: 0; stroke-linejoin: round; stroke-miterlimit: 4; fill: none; fill-rule: nonzero; opacity: 1;" vector-effect="non-scaling-stroke"  transform=" translate(-15, -14)" d="M 9 14 C 9 15.657 11.686 17 15 17 C 18.314 17 21 15.657 21 14 C 21 12.343 18.314 11 15 11 C 11.686 11 9 12.343 9 14 z" stroke-linecap="round" />
</g>
		<g transform="matrix(1 0 0 1 3 5.5)" id="Hn5S-B1648Xe921RtHmtS"  >
<path style="stroke: rgb(218,226,236); stroke-width: 1; stroke-dasharray: none; stroke-linecap: round; stroke-dashoffset: 0; stroke-linejoin: round; stroke-miterlimit: 4; fill: none; fill-rule: nonzero; opacity: 1;" vector-effect="non-scaling-stroke"  transform=" translate(-15, -17.5)" d="M 9 14 L 9 18 C 9 19.656 11.686 21 15 21 C 18.314 21 21 19.656 21 18 L 21 14" stroke-linecap="round" />
</g>
		<g transform="matrix(1 0 0 1 -3 -6)" id="JXDWFfxjouGIvzaOnLik0"  >
<path style="stroke: rgb(218,226,236); stroke-width: 1; stroke-dasharray: none; stroke-linecap: round; stroke-dashoffset: 0; stroke-linejoin: round; stroke-miterlimit: 4; fill: none; fill-rule: nonzero; opacity: 1;" vector-effect="non-scaling-stroke"  transform=" translate(-9, -6)" d="M 3 6 C 3 7.072 4.144 8.062 6 8.597999999999999 C 7.856 9.133999999999999 10.144 9.133999999999999 12 8.597999999999999 C 13.856 8.062 15 7.071999999999999 15 5.999999999999999 C 15 4.927999999999999 13.856 3.9379999999999993 12 3.4019999999999992 C 10.144 2.865999999999999 7.856 2.865999999999999 6 3.4019999999999992 C 4.144 3.9379999999999993 3 4.927999999999999 3 5.999999999999999 z" stroke-linecap="round" />
</g>
		<g transform="matrix(1 0 0 1 -8 0)" id="PrZuP4zzG4TzBcHSNWnDQ"  >
<path style="stroke: rgb(218,226,236); stroke-width: 1; stroke-dasharray: none; stroke-linecap: round; stroke-dashoffset: 0; stroke-linejoin: round; stroke-miterlimit: 4; fill: none; fill-rule: nonzero; opacity: 1;" vector-effect="non-scaling-stroke"  transform=" translate(-4, -12)" d="M 3 6 L 3 16 C 3 16.888 3.7720000000000002 17.45 5 18" stroke-linecap="round" />
</g>
		<g transform="matrix(1 0 0 1 -8 0)" id="5yGaO4rCXb-FMM6-IT84k"  >
<path style="stroke: rgb(218,226,236); stroke-width: 1; stroke-dasharray: none; stroke-linecap: round; stroke-dashoffset: 0; stroke-linejoin: round; stroke-miterlimit: 4; fill: none; fill-rule: nonzero; opacity: 1;" vector-effect="non-scaling-stroke"  transform=" translate(-4, -12)" d="M 3 11 C 3 11.888 3.7720000000000002 12.45 5 13" stroke-linecap="round" />
</g>
</g>
</g>
		<g transform="matrix(4.2963522282 0 0 4.2963522282 47.4094862223 -38.2955581318)" id="j8qTvGdbjw52bbmisDUnx"  >
<g style="" vector-effect="non-scaling-stroke"   >
		<g transform="matrix(1 0 0 1 0 0)" id="v9pX_YpJarlMrb9yWCvXU"  >
<path style="stroke: none; stroke-width: 1; stroke-dasharray: none; stroke-linecap: round; stroke-dashoffset: 0; stroke-linejoin: round; stroke-miterlimit: 4; fill: none; fill-rule: nonzero; opacity: 1;" vector-effect="non-scaling-stroke"  transform=" translate(-12, -12)" d="M 0 0 L 24 0 L 24 24 L 0 24 z" stroke-linecap="round" />
</g>
		<g transform="matrix(1 0 0 1 3 2)" id="-5oD4hG-c_z5A6jJJZKvr"  >
<path style="stroke: rgb(218,226,236); stroke-width: 1; stroke-dasharray: none; stroke-linecap: round; stroke-dashoffset: 0; stroke-linejoin: round; stroke-miterlimit: 4; fill: none; fill-rule: nonzero; opacity: 1;" vector-effect="non-scaling-stroke"  transform=" translate(-15, -14)" d="M 9 14 C 9 15.657 11.686 17 15 17 C 18.314 17 21 15.657 21 14 C 21 12.343 18.314 11 15 11 C 11.686 11 9 12.343 9 14 z" stroke-linecap="round" />
</g>
		<g transform="matrix(1 0 0 1 3 5.5)" id="m4Z4D7IPmRSZjCZMwRqy1"  >
<path style="stroke: rgb(218,226,236); stroke-width: 1; stroke-dasharray: none; stroke-linecap: round; stroke-dashoffset: 0; stroke-linejoin: round; stroke-miterlimit: 4; fill: none; fill-rule: nonzero; opacity: 1;" vector-effect="non-scaling-stroke"  transform=" translate(-15, -17.5)" d="M 9 14 L 9 18 C 9 19.656 11.686 21 15 21 C 18.314 21 21 19.656 21 18 L 21 14" stroke-linecap="round" />
</g>
		<g transform="matrix(1 0 0 1 -3 -6)" id="SYU-BQsxiTpW03sX6sx0n"  >
<path style="stroke: rgb(218,226,236); stroke-width: 1; stroke-dasharray: none; stroke-linecap: round; stroke-dashoffset: 0; stroke-linejoin: round; stroke-miterlimit: 4; fill: none; fill-rule: nonzero; opacity: 1;" vector-effect="non-scaling-stroke"  transform=" translate(-9, -6)" d="M 3 6 C 3 7.072 4.144 8.062 6 8.597999999999999 C 7.856 9.133999999999999 10.144 9.133999999999999 12 8.597999999999999 C 13.856 8.062 15 7.071999999999999 15 5.999999999999999 C 15 4.927999999999999 13.856 3.9379999999999993 12 3.4019999999999992 C 10.144 2.865999999999999 7.856 2.865999999999999 6 3.4019999999999992 C 4.144 3.9379999999999993 3 4.927999999999999 3 5.999999999999999 z" stroke-linecap="round" />
</g>
		<g transform="matrix(1 0 0 1 -8 0)" id="cHVdnuQp0HlNV4qMiUP4J"  >
<path style="stroke: rgb(218,226,236); stroke-width: 1; stroke-dasharray: none; stroke-linecap: round; stroke-dashoffset: 0; stroke-linejoin: round; stroke-miterlimit: 4; fill: none; fill-rule: nonzero; opacity: 1;" vector-effect="non-scaling-stroke"  transform=" translate(-4, -12)" d="M 3 6 L 3 16 C 3 16.888 3.7720000000000002 17.45 5 18" stroke-linecap="round" />
</g>
		<g transform="matrix(1 0 0 1 -8 0)" id="qXT5fcibGYLyxyjYnqU8X"  >
<path style="stroke: rgb(218,226,236); stroke-width: 1; stroke-dasharray: none; stroke-linecap: round; stroke-dashoffset: 0; stroke-linejoin: round; stroke-miterlimit: 4; fill: none; fill-rule: nonzero; opacity: 1;" vector-effect="non-scaling-stroke"  transform=" translate(-4, -12)" d="M 3 11 C 3 11.888 3.7720000000000002 12.45 5 13" stroke-linecap="round" />
</g>
</g>
</g>
		<g transform="matrix(2.8065650616 0 0 2.8065650616 -61.6154020475 -62.9159602267)" id="qAaNX92pJGU_cNnUJQhxJ"  >
<g style="" vector-effect="non-scaling-stroke"   >
		<g transform="matrix(1 0 0 1 0 0)" id="0NnR00d5xhmxwt7u7l_br"  >
<path style="stroke: none; stroke-width: 1; stroke-dasharray: none; stroke-linecap: round; stroke-dashoffset: 0; stroke-linejoin: round; stroke-miterlimit: 4; fill: none; fill-rule: nonzero; opacity: 1;" vector-effect="non-scaling-stroke"  transform=" translate(-12, -12)" d="M 0 0 L 24 0 L 24 24 L 0 24 z" stroke-linecap="round" />
</g>
		<g transform="matrix(1 0 0 1 0 0)" id="DM36qJpuSoW-fBJJOhmFs"  >
<path style="stroke: rgb(218,226,236); stroke-width: 1; stroke-dasharray: none; stroke-linecap: round; stroke-dashoffset: 0; stroke-linejoin: round; stroke-miterlimit: 4; fill: none; fill-rule: nonzero; opacity: 1;" vector-effect="non-scaling-stroke"  transform=" translate(-12, -12)" d="M 16.7 8 C 16.292780711108424 6.844581889361036 15.223938623149163 6.052847009391213 13.999999999999996 6 L 10 6 C 8.34314575050762 6 7 7.343145750507619 7 9 C 7 10.65685424949238 8.34314575050762 12 10 12 L 14 12 C 15.65685424949238 12 17 13.343145750507619 17 15 C 17 16.65685424949238 15.656854249492381 18 14.000000000000002 18 L 10 18 C 8.776061376850834 17.947152990608785 7.707219288891572 17.155418110638966 7.299999999999999 16" stroke-linecap="round" />
</g>
		<g transform="matrix(1 0 0 1 0 0)" id="uf8toujz4B95FQ4-ICndk"  >
<path style="stroke: rgb(218,226,236); stroke-width: 1; stroke-dasharray: none; stroke-linecap: round; stroke-dashoffset: 0; stroke-linejoin: round; stroke-miterlimit: 4; fill: none; fill-rule: nonzero; opacity: 1;" vector-effect="non-scaling-stroke"  transform=" translate(-12, -12)" d="M 12 3 L 12 6 M 12 18 L 12 21" stroke-linecap="round" />
</g>
</g>
</g>
		<g transform="matrix(2.9418382796 0 0 2.9418382796 1.5201242541 20.7054395462)" id="RzzEeC867rU76LBw4xRWD"  >
<g style="" vector-effect="non-scaling-stroke"   >
		<g transform="matrix(1 0 0 1 0 0)" id="cRMwkEKggEZdJQEeDH3Ll"  >
<path style="stroke: none; stroke-width: 1; stroke-dasharray: none; stroke-linecap: round; stroke-dashoffset: 0; stroke-linejoin: round; stroke-miterlimit: 4; fill: none; fill-rule: nonzero; opacity: 1;" vector-effect="non-scaling-stroke"  transform=" translate(-12, -12)" d="M 0 0 L 24 0 L 24 24 L 0 24 z" stroke-linecap="round" />
</g>
		<g transform="matrix(1 0 0 1 0.1004373633 0)" id="srqazOfxwK3OYZW_5bkC8"  >
<path style="stroke: rgb(218,226,236); stroke-width: 1; stroke-dasharray: none; stroke-linecap: round; stroke-dashoffset: 0; stroke-linejoin: round; stroke-miterlimit: 4; fill: none; fill-rule: nonzero; opacity: 1;" vector-effect="non-scaling-stroke"  transform=" translate(-12.1004373633, -12)" d="M 17.2 7 C 14.844443691221176 4.307374858779102 11.067763038500129 4.337351058248727 8.743826860304289 7.067118180247138 C 6.4198906821084485 9.796885302245549 6.419890682108447 14.203114697754451 8.743826860304289 16.932881819752865 C 11.06776303850013 19.662648941751275 14.844443691221178 19.6926251412209 17.2 17" stroke-linecap="round" />
</g>
		<g transform="matrix(1 0 0 1 -3 0)" id="Qu8SYSiCu86GU6iyXVnln"  >
<path style="stroke: rgb(218,226,236); stroke-width: 1; stroke-dasharray: none; stroke-linecap: round; stroke-dashoffset: 0; stroke-linejoin: round; stroke-miterlimit: 4; fill: none; fill-rule: nonzero; opacity: 1;" vector-effect="non-scaling-stroke"  transform=" translate(-9, -12)" d="M 13 10 L 5 10 M 5 14 L 13 14" stroke-linecap="round" />
</g>
</g>
</g>
		<g transform="matrix(1.1018518519 0 0 1.1018518519 35.2222222222 -64.6923076923)" id="uUYtduF7c9du4LGzrYeE0"  >
<g style="" vector-effect="non-scaling-stroke"   >
		<g transform="matrix(1 0 0 1 0 0)" id="nG4c0aazfx6AsrS20V69M"  >
<path style="stroke: none; stroke-width: 1; stroke-dasharray: none; stroke-linecap: round; stroke-dashoffset: 0; stroke-linejoin: round; stroke-miterlimit: 4; fill: none; fill-rule: nonzero; opacity: 1;" vector-effect="non-scaling-stroke"  transform=" translate(-12, -12)" d="M 0 0 L 24 0 L 24 24 L 0 24 z" stroke-linecap="round" />
</g>
		<g transform="matrix(1 0 0 1 -0.05 0.0346984563)" id="TaRYXDa7XyM9iww0xm372"  >
<path style="stroke: rgb(218,226,236); stroke-width: 1; stroke-dasharray: none; stroke-linecap: round; stroke-dashoffset: 0; stroke-linejoin: round; stroke-miterlimit: 4; fill: none; fill-rule: nonzero; opacity: 1;" vector-effect="non-scaling-stroke"  transform=" translate(-11.95, -12.0346984563)" d="M 17 18.5 C 15.412727283249524 19.227525256909523 13.587272716750476 19.227525256909523 12 18.5 C 10.340449551096983 17.927119919263426 8.513246463630368 18.10984022801009 7 19 C 8.092773833762589 18.621772481602964 8.870874726048337 17.649146366245777 9 16.5 L 9 9 C 9.010851608498086 7.199268941943254 10.223639699298563 5.627786324389689 11.962823201220129 5.160891424544975 C 13.702006703141691 4.6939965247002595 15.538766514066404 5.446808564609478 16.45 7.000000000000001 M 13.899999999999999 13 L 6.899999999999999 13" stroke-linecap="round" />
</g>
</g>
</g>
		<g transform="matrix(1.1030982906 0 0 1.1030982906 60.6816239316 -29.2371794872)" id="Z_4PCoO0Ebg3oI9UOqfX1"  >
<g style="" vector-effect="non-scaling-stroke"   >
		<g transform="matrix(1 0 0 1 0 0)" id="Z0PBNZDb-JiyFRZ1MI27Z"  >
<path style="stroke: none; stroke-width: 1; stroke-dasharray: none; stroke-linecap: round; stroke-dashoffset: 0; stroke-linejoin: round; stroke-miterlimit: 4; fill: none; fill-rule: nonzero; opacity: 1;" vector-effect="non-scaling-stroke"  transform=" translate(-12, -12)" d="M 0 0 L 24 0 L 24 24 L 0 24 z" stroke-linecap="round" />
</g>
		<g transform="matrix(1 0 0 1 -2 0)" id="V3M8fkBhpyAkP7l8Fx0kA"  >
<path style="stroke: rgb(218,226,236); stroke-width: 1; stroke-dasharray: none; stroke-linecap: round; stroke-dashoffset: 0; stroke-linejoin: round; stroke-miterlimit: 4; fill: none; fill-rule: nonzero; opacity: 1;" vector-effect="non-scaling-stroke"  transform=" translate(-10, -12)" d="M 6 18 L 6 6 L 10 6 C 12.209138999323173 6 14 7.790861000676825 14 10 L 14 14" stroke-linecap="round" />
</g>
		<g transform="matrix(1 0 0 1 2 0)" id="kh9J0LAQclAf_jY4cbYXa"  >
<path style="stroke: rgb(218,226,236); stroke-width: 1; stroke-dasharray: none; stroke-linecap: round; stroke-dashoffset: 0; stroke-linejoin: round; stroke-miterlimit: 4; fill: none; fill-rule: nonzero; opacity: 1;" vector-effect="non-scaling-stroke"  transform=" translate(-14, -12)" d="M 18 6 L 18 18 L 14 18 C 11.790861000676827 18 10 16.209138999323173 10 14 L 10 10" stroke-linecap="round" />
</g>
</g>
</g>
		<g transform="matrix(0.9164532786 0 0 0.9164532786 108.2453025907 54.4538564902)" id="qjIzi2rjM9txcTgEJNimq"  >
<g style="" vector-effect="non-scaling-stroke"   >
		<g transform="matrix(1 0 0 1 0 0)" id="25jOur1SZImlzpvQ9OkFo"  >
<path style="stroke: none; stroke-width: 1; stroke-dasharray: none; stroke-linecap: round; stroke-dashoffset: 0; stroke-linejoin: round; stroke-miterlimit: 4; fill: none; fill-rule: nonzero; opacity: 1;" vector-effect="non-scaling-stroke"  transform=" translate(-12, -12)" d="M 0 0 L 24 0 L 24 24 L 0 24 z" stroke-linecap="round" />
</g>
		<g transform="matrix(1 0 0 1 0.5 0)" id="a6pPIbD3wmwXBBPleCDoG"  >
<path style="stroke: rgb(218,226,236); stroke-width: 1; stroke-dasharray: none; stroke-linecap: round; stroke-dashoffset: 0; stroke-linejoin: round; stroke-miterlimit: 4; fill: none; fill-rule: nonzero; opacity: 1;" vector-effect="non-scaling-stroke"  transform=" translate(-12.5, -12)" d="M 18 5 L 7 5 L 10 5 C 12.209138999323173 5 14 6.790861000676825 14 9 C 14 11.209138999323173 12.209138999323175 13 10.000000000000002 13 L 7 13 L 13 19" stroke-linecap="round" />
</g>
		<g transform="matrix(1 0 0 1 0.5 -3)" id="LIMsCpAcT355A6xu5ycGt"  >
<path style="stroke: rgb(218,226,236); stroke-width: 1; stroke-dasharray: none; stroke-linecap: round; stroke-dashoffset: 0; stroke-linejoin: round; stroke-miterlimit: 4; fill: none; fill-rule: nonzero; opacity: 1;" vector-effect="non-scaling-stroke"  transform=" translate(-12.5, -9)" d="M 7 9 L 18 9" stroke-linecap="round" />
</g>
</g>
</g>
		<g transform="matrix(0.8073361823 0 0 0.8073361823 112.7905982906 -24.2371794872)" id="-kIYTtSOC4V07SSrtkOWG"  >
<g style="" vector-effect="non-scaling-stroke"   >
		<g transform="matrix(1 0 0 1 0 0)" id="tyNn87Q7IwrRrM7SilyVs"  >
<path style="stroke: none; stroke-width: 1; stroke-dasharray: none; stroke-linecap: round; stroke-dashoffset: 0; stroke-linejoin: round; stroke-miterlimit: 4; fill: none; fill-rule: nonzero; opacity: 1;" vector-effect="non-scaling-stroke"  transform=" translate(-12, -12)" d="M 0 0 L 24 0 L 24 24 L 0 24 z" stroke-linecap="round" />
</g>
		<g transform="matrix(1 0 0 1 -0.5 0)" id="hb8TZURLtT20p08gtHaH6"  >
<path style="stroke: rgb(218,226,236); stroke-width: 1; stroke-dasharray: none; stroke-linecap: round; stroke-dashoffset: 0; stroke-linejoin: round; stroke-miterlimit: 4; fill: none; fill-rule: nonzero; opacity: 1;" vector-effect="non-scaling-stroke"  transform=" translate(-11.5, -12)" d="M 8 19 L 8 5 L 14 5 C 15.65685424949238 5 17 6.3431457505076185 17 7.999999999999999 C 17 9.65685424949238 15.656854249492381 11 14.000000000000002 11 L 6 11" stroke-linecap="round" />
</g>
		<g transform="matrix(1 0 0 1 -2 3)" id="7MBGIizG_-HoCgJ54ON_A"  >
<path style="stroke: rgb(218,226,236); stroke-width: 1; stroke-dasharray: none; stroke-linecap: round; stroke-dashoffset: 0; stroke-linejoin: round; stroke-miterlimit: 4; fill: none; fill-rule: nonzero; opacity: 1;" vector-effect="non-scaling-stroke"  transform=" translate(-10, -15)" d="M 14 15 L 6 15" stroke-linecap="round" />
</g>
</g>
</g>
		<g transform="matrix(0.7866296262 0 0 0.7866296262 130.6727864485 -1.0891281639)" id="PVzXKKhONHF61ajlWWAFA"  >
<g style="" vector-effect="non-scaling-stroke"   >
		<g transform="matrix(1 0 0 1 0 0)" id="2ONoR-fxxOGf_d-Gq3Bvg"  >
<path style="stroke: none; stroke-width: 1; stroke-dasharray: none; stroke-linecap: round; stroke-dashoffset: 0; stroke-linejoin: round; stroke-miterlimit: 4; fill: none; fill-rule: nonzero; opacity: 1;" vector-effect="non-scaling-stroke"  transform=" translate(-12, -12)" d="M 0 0 L 24 0 L 24 24 L 0 24 z" stroke-linecap="round" />
</g>
		<g transform="matrix(1 0 0 1 1 0)" id="FRC8_wk96Sl1_jGhkcBWa"  >
<path style="stroke: rgb(218,226,236); stroke-width: 1; stroke-dasharray: none; stroke-linecap: round; stroke-dashoffset: 0; stroke-linejoin: round; stroke-miterlimit: 4; fill: none; fill-rule: nonzero; opacity: 1;" vector-effect="non-scaling-stroke"  transform=" translate(-13, -12)" d="M 17 5 L 11 5 C 9.895430500338414 5 9 5.8954305003384135 9 7 L 9 19" stroke-linecap="round" />
</g>
		<g transform="matrix(1 0 0 1 -3 3)" id="-u9F5VaQwaRXDO3twUJHp"  >
<path style="stroke: rgb(218,226,236); stroke-width: 1; stroke-dasharray: none; stroke-linecap: round; stroke-dashoffset: 0; stroke-linejoin: round; stroke-miterlimit: 4; fill: none; fill-rule: nonzero; opacity: 1;" vector-effect="non-scaling-stroke"  transform=" translate(-9, -15)" d="M 7 15 L 11 15" stroke-linecap="round" />
</g>
		<g transform="matrix(1 0 0 1 0.5 -1)" id="4xbcY2MOpgfSlJiXkvtr2"  >
<path style="stroke: rgb(218,226,236); stroke-width: 1; stroke-dasharray: none; stroke-linecap: round; stroke-dashoffset: 0; stroke-linejoin: round; stroke-miterlimit: 4; fill: none; fill-rule: nonzero; opacity: 1;" vector-effect="non-scaling-stroke"  transform=" translate(-12.5, -11)" d="M 9 11 L 16 11" stroke-linecap="round" />
</g>
</g>
</g>
		<g transform="matrix(0.896011396 0 0 0.896011396 87.4957264957 25.2478632479)" id="I-Sa3Dw6Q4WX5P5eiX70R"  >
<g style="" vector-effect="non-scaling-stroke"   >
		<g transform="matrix(1 0 0 1 0 0)" id="xLABpDSCOHsjVjZdM9xrV"  >
<path style="stroke: none; stroke-width: 1; stroke-dasharray: none; stroke-linecap: round; stroke-dashoffset: 0; stroke-linejoin: round; stroke-miterlimit: 4; fill: none; fill-rule: nonzero; opacity: 1;" vector-effect="non-scaling-stroke"  transform=" translate(-12, -12)" d="M 0 0 L 24 0 L 24 24 L 0 24 z" stroke-linecap="round" />
</g>
		<g transform="matrix(1 0 0 1 -2.5 0)" id="pTLxgsckonFPTNEmWZsU4"  >
<path style="stroke: rgb(218,226,236); stroke-width: 1; stroke-dasharray: none; stroke-linecap: round; stroke-dashoffset: 0; stroke-linejoin: round; stroke-miterlimit: 4; fill: none; fill-rule: nonzero; opacity: 1;" vector-effect="non-scaling-stroke"  transform=" translate(-9.5, -12)" d="M 12 19 L 12 12 L 7 5" stroke-linecap="round" />
</g>
		<g transform="matrix(1 0 0 1 2.5 -3.5)" id="xjGVkJsTT5IhQUMMnh5Cv"  >
<path style="stroke: rgb(218,226,236); stroke-width: 1; stroke-dasharray: none; stroke-linecap: round; stroke-dashoffset: 0; stroke-linejoin: round; stroke-miterlimit: 4; fill: none; fill-rule: nonzero; opacity: 1;" vector-effect="non-scaling-stroke"  transform=" translate(-14.5, -8.5)" d="M 17 5 L 12 12" stroke-linecap="round" />
</g>
		<g transform="matrix(1 0 0 1 0 1)" id="K7fUHe0UvPXhkz7keCgvf"  >
<path style="stroke: rgb(218,226,236); stroke-width: 1; stroke-dasharray: none; stroke-linecap: round; stroke-dashoffset: 0; stroke-linejoin: round; stroke-miterlimit: 4; fill: none; fill-rule: nonzero; opacity: 1;" vector-effect="non-scaling-stroke"  transform=" translate(-12, -13)" d="M 8 13 L 16 13" stroke-linecap="round" />
</g>
</g>
</g>
</g>
</g>
</svg>